{"title":"The.Birdcage.1996.SWESUB.DVDRip.XviD.-Zen_Bud","uid":5736000,"size":1475838298,"categoryP":"video","categoryS":"movies","magnet":"?xt=urn:btih:eeae42c4de0fa320359205a2abc1ae350365ffa5&amp;dn=The.Birdcage.1996.SWESUB.DVDRip.XviD.-Zen_Bud&amp;tr=udp%3A%2F%2Ftracker.openbittorrent.com%3A80&amp;tr=udp%3A%2F%2Fopen.demonii.com%3A1337&amp;tr=udp%3A%2F%2Ftracker.coppersurfer.tk%3A6969&amp;tr=udp%3A%2F%2Fexodus.desync.com%3A6969","seeders":2,"leechers":0,"uploader":"EuroGroover","files":1,"time":1280821200,"description":"General\nComplete name                    : The Birdcage.1996.avi\nFormat                           : AVI\nFile size                        : 1.37 GiB\nDuration                         : 1h 54mn\nOverall bit rate                 : 1 722 Kbps\n\nVideo\nFormat                           : MPEG-4 Visual\nCodec ID/Hint                    : XviD\nDuration                         : 1h 54mn\nBit rate                         : 1 597 Kbps\nWidth                            : 704 pixels\nHeight                           : 552 pixels\nDisplay aspect ratio             : 1.855\nStream size                      : 1.27 GiB (93%)\nWriting library                  : XviD 1.1.2 (UTC 2006-11-01)\n\nAudio\n\nFormat                           : MPEG Audio\nCodec ID/Hint                    : MP3\nDuration                         : 1h 54mn\nBit rate                         : 112 Kbps\nChannel(s)                       : 2 channels\nSampling rate                    : 48.0 KHz\nStream size                      : 91.6 MiB (7%)","torrent":{"xt":"urn:btih:eeae42c4de0fa320359205a2abc1ae350365ffa5","amp;dn":"The.Birdcage.1996.SWESUB.DVDRip.XviD.-Zen_Bud","amp;tr":["udp%3A%2F%2Ftracker.openbittorrent.com%3A80","udp%3A%2F%2Fopen.demonii.com%3A1337","udp%3A%2F%2Ftracker.coppersurfer.tk%3A6969","udp%3A%2F%2Fexodus.desync.com%3A6969"],"infoHash":"eeae42c4de0fa320359205a2abc1ae350365ffa5","infoHashBuffer":{"type":"Buffer","data":[238,174,66,196,222,15,163,32,53,146,5,162,171,193,174,53,3,101,255,165]},"announce":[],"urlList":[]}}